<svg width="3392" height="584" viewBox="0 0 3392 584" fill="none" xmlns="http://www.w3.org/2000/svg">
<g clip-path="url(#clip0_3013_896)">
<path d="M182 0C185.75 -0.375 185.75 -0.375 189 0C196.262 13.9317 202.585 28.2809 208.951 42.6367C210.908 47.0466 212.868 51.4548 214.828 55.8633C217.431 61.7186 220.033 67.5742 222.634 73.4304C227.732 84.9098 232.851 96.3795 237.999 107.837C243.363 119.786 248.67 131.76 253.983 143.731C260.353 158.082 266.778 172.407 273.239 186.717C279.271 200.085 285.185 213.501 291.058 226.939C297.159 240.89 303.397 254.773 309.697 268.635C315.564 281.548 321.323 294.503 327 307.5C333.19 321.672 339.485 335.792 345.875 349.875C346.48 351.209 346.48 351.209 347.098 352.571C347.898 354.333 348.697 356.095 349.497 357.857C350.075 359.13 350.075 359.13 350.664 360.43C351.043 361.264 351.421 362.098 351.811 362.957C355.924 372.027 359.982 381.122 364 390.234C365.974 394.706 367.977 399.164 370.001 403.614C371.412 406.723 372.813 409.838 374.213 412.953C374.897 414.468 375.585 415.98 376.278 417.49C377.244 419.598 378.194 421.712 379.141 423.828C379.431 424.45 379.721 425.072 380.019 425.712C382.493 431.32 382.832 435.647 380.785 441.436C380.224 442.655 379.649 443.868 379.062 445.074C378.596 446.076 378.596 446.076 378.119 447.099C377.445 448.543 376.765 449.984 376.079 451.422C374.594 454.539 373.139 457.67 371.682 460.8C370.92 462.436 370.157 464.071 369.393 465.705C365.571 473.881 361.899 482.121 358.25 490.375C357.597 491.848 356.945 493.321 356.292 494.794C354.928 497.871 353.565 500.949 352.203 504.027C347.231 515.255 342.243 526.475 337.251 537.694C336.835 538.629 336.419 539.564 335.991 540.527C335.166 542.38 334.342 544.233 333.517 546.086C331.295 551.08 329.081 556.077 326.877 561.078C325.658 563.84 324.435 566.601 323.211 569.36C322.396 571.202 321.588 573.046 320.781 574.89C320.304 575.963 319.827 577.036 319.336 578.141C318.929 579.064 318.522 579.987 318.103 580.938C317 583 317 583 315 584C309.563 584.463 309.563 584.463 307.417 582.699C305.076 579.892 303.791 576.543 302.332 573.223C301.805 572.045 301.805 572.045 301.267 570.843C300.109 568.253 298.961 565.658 297.812 563.062C297.001 561.243 296.189 559.423 295.377 557.604C293.303 552.955 291.238 548.303 289.175 543.65C287.415 539.681 285.651 535.713 283.887 531.746C281.94 527.367 279.994 522.987 278.051 518.606C272.99 507.199 267.878 495.815 262.75 484.438C257.312 472.371 251.893 460.296 246.528 448.197C242.728 439.628 238.903 431.072 235.072 422.518C228.337 407.48 221.628 392.432 214.938 377.375C214.52 376.436 214.103 375.497 213.673 374.53C209.57 365.298 205.469 356.064 201.381 346.824C199.879 343.43 198.376 340.037 196.872 336.644C195.833 334.296 194.796 331.948 193.76 329.599C193.138 328.196 192.516 326.793 191.895 325.391C191.613 324.751 191.332 324.112 191.042 323.453C189.854 320.514 189.854 320.514 188 318C186 317.959 184 317.957 182 318C175.23 332.5 168.608 347.058 162.125 361.688C161.449 363.211 160.773 364.735 160.097 366.258C159.762 367.015 159.426 367.771 159.08 368.55C158.744 369.307 158.408 370.064 158.063 370.844C157.385 372.37 156.708 373.896 156.031 375.422C155.696 376.176 155.362 376.931 155.017 377.708C154.336 379.243 153.656 380.777 152.976 382.311C151.007 386.751 149.033 391.188 147.048 395.621C146.436 396.991 145.826 398.363 145.219 399.735C144.384 401.622 143.541 403.505 142.695 405.387C142.221 406.451 141.747 407.515 141.258 408.612C140 411 140 411 138 412C136.205 412.098 134.407 412.131 132.61 412.134C131.466 412.138 130.322 412.142 129.143 412.147C127.881 412.146 126.62 412.146 125.32 412.145C123.983 412.148 122.646 412.152 121.31 412.155C117.673 412.164 114.037 412.167 110.401 412.167C107.369 412.168 104.337 412.172 101.305 412.175C94.1543 412.184 87.0039 412.186 79.8535 412.185C72.4679 412.185 65.0823 412.195 57.6967 412.211C51.3629 412.224 45.0291 412.229 38.6953 412.229C34.9092 412.229 31.1231 412.231 27.337 412.242C23.778 412.252 20.2192 412.252 16.6602 412.245C14.7259 412.243 12.7916 412.251 10.8574 412.26C9.1411 412.254 9.1411 412.254 7.39015 412.247C5.89244 412.248 5.89244 412.248 4.36448 412.249C2.00001 412 2.00001 412 1.18911e-05 410C-0.697102 404.562 1.12261 400.722 3.37501 395.93C3.73102 395.148 4.08703 394.367 4.45382 393.562C5.62579 390.995 6.81301 388.435 8.00001 385.875C8.82315 384.078 9.645 382.28 10.4656 380.481C11.7283 377.714 12.9918 374.948 14.2596 372.183C18.0115 364.001 21.68 355.783 25.322 347.551C26.9694 343.828 28.6215 340.107 30.2734 336.387C30.5907 335.672 30.908 334.957 31.2349 334.221C34.2866 327.348 37.359 320.485 40.4375 313.625C40.9573 312.467 41.4771 311.308 42.0127 310.115C42.8194 308.317 43.626 306.519 44.4328 304.722C47.9804 296.817 51.5227 288.909 55.0625 281C55.4156 280.211 55.7688 279.422 56.1326 278.609C62.5198 264.337 68.8677 250.047 75.2115 235.755C81.4658 221.668 87.7671 207.602 94.1042 193.552C100.115 180.221 106.07 166.867 112 153.5C118.656 138.496 125.356 123.513 132.105 108.551C137.688 96.1696 143.225 83.7681 148.734 71.3531C152.066 63.8442 155.403 56.3376 158.741 48.8312C159.588 46.9256 160.435 45.0199 161.282 43.1141C163.788 37.4756 166.299 31.8397 168.818 26.2075C169.598 24.4631 170.375 22.7178 171.15 20.9717C172.22 18.5634 173.297 16.1583 174.375 13.7539C174.839 12.7024 174.839 12.7024 175.313 11.6297C177.186 7.47684 179.157 3.5951 182 0Z" fill="#12122D"/>
<path d="M769 66C786.49 66 803.98 66 822 66C827.739 76.9034 833.431 87.7228 838.76 98.8145C840.561 102.562 842.373 106.304 844.184 110.047C844.568 110.843 844.953 111.64 845.35 112.46C850.137 122.365 854.977 132.244 859.812 142.125C861.694 145.971 863.576 149.818 865.457 153.664C865.922 154.615 866.387 155.565 866.866 156.545C871.585 166.193 876.293 175.846 881 185.5C887.528 198.889 894.065 212.274 900.609 225.655C903.365 231.29 906.12 236.926 908.875 242.562C911.184 247.286 913.494 252.01 915.804 256.733C918.085 261.397 920.364 266.061 922.643 270.725C923.489 272.458 924.336 274.19 925.184 275.922C929.188 284.107 933.176 292.299 937.066 300.539C937.366 301.166 937.665 301.794 937.973 302.44C940 306.767 940 306.767 940 309C940.66 309 941.32 309 942 309C942.257 308.159 942.514 307.318 942.78 306.451C944.093 302.737 945.74 299.286 947.527 295.785C947.876 295.094 948.224 294.402 948.583 293.689C949.697 291.478 950.817 289.27 951.938 287.062C957.314 276.449 962.562 265.786 967.676 255.043C972.652 244.603 977.749 234.224 982.854 223.847C985.713 218.035 988.567 212.22 991.422 206.406C991.989 205.251 992.556 204.096 993.14 202.906C998.03 192.947 1002.9 182.977 1007.75 173C1014.48 159.159 1021.24 145.327 1028 131.5C1036.08 114.984 1044.14 98.4611 1052.19 81.9297C1052.57 81.152 1052.94 80.3743 1053.33 79.573C1054.04 78.1323 1054.74 76.6915 1055.44 75.2506C1056.94 72.1588 1058.46 69.0757 1060 66C1077.49 66 1094.98 66 1113 66C1113 180.18 1113 294.36 1113 412C1094.85 412 1076.7 412 1058 412C1057.51 305.08 1057.51 305.08 1057 196C1051.72 207.22 1046.44 218.44 1041 230C1035.29 241.8 1035.29 241.8 1032.42 247.627C1026.69 259.275 1021.04 270.949 1015.62 282.75C1009.68 295.724 1003.39 308.528 997.106 321.34C991.79 332.177 986.527 343.025 981.5 354C975.776 366.49 969.777 378.841 963.75 391.188C963.273 392.166 962.796 393.144 962.305 394.153C960.951 396.93 959.593 399.705 958.234 402.48C957.821 403.327 957.409 404.173 956.983 405.045C956.604 405.817 956.225 406.589 955.835 407.384C955.338 408.399 955.338 408.399 954.83 409.436C954 411 954 411 953 412C951.219 412.087 949.435 412.107 947.652 412.098C946.573 412.094 945.493 412.091 944.381 412.088C942.676 412.075 942.676 412.075 940.938 412.062C939.797 412.058 938.657 412.053 937.482 412.049C934.655 412.037 931.827 412.021 929 412C923.534 401.117 918.134 390.204 912.812 379.25C912.445 378.493 912.077 377.737 911.698 376.957C906.373 366 901.183 354.991 896.095 343.921C890.981 332.849 885.616 321.903 880.252 310.951C874.694 299.598 869.265 288.203 863.992 276.715C858.922 265.721 853.593 254.857 848.268 243.985C841.361 229.877 834.65 215.692 828.119 201.406C827.117 199.252 826.062 197.124 825 195C824.67 266.61 824.34 338.22 824 412C805.85 412 787.7 412 769 412C769 297.82 769 183.64 769 66Z" fill="#12122D"/>
<path d="M1633 169C1633.33 163.39 1633.66 157.78 1634 152C1651.16 152 1668.32 152 1686 152C1686.04 187.584 1686.08 223.169 1686.1 258.754C1686.1 262.964 1686.11 267.174 1686.11 271.384C1686.11 272.222 1686.11 273.061 1686.11 273.924C1686.12 287.458 1686.14 300.992 1686.15 314.526C1686.17 328.434 1686.18 342.342 1686.19 356.251C1686.19 364.818 1686.2 373.386 1686.22 381.954C1686.23 387.846 1686.23 393.738 1686.23 399.629C1686.23 403.018 1686.23 406.407 1686.24 409.796C1686.33 444.544 1684.78 477.829 1659 504C1635.43 527.614 1599.88 535.146 1567.56 535.25C1532.81 535.235 1501.24 522.97 1476.47 498.5C1470.85 492.493 1466.38 485.938 1462 479C1464.35 476.366 1466.75 474.938 1469.9 473.364C1470.89 472.864 1471.89 472.364 1472.91 471.848C1473.98 471.317 1475.06 470.785 1476.16 470.238C1477.26 469.687 1478.36 469.137 1479.5 468.569C1482.42 467.11 1485.34 465.656 1488.27 464.205C1490.06 463.311 1491.86 462.414 1493.65 461.516C1497.09 459.794 1500.53 458.077 1503.97 456.363C1505.05 455.825 1506.12 455.288 1507.23 454.734C1508.22 454.243 1509.21 453.753 1510.23 453.247C1511.11 452.812 1511.98 452.377 1512.88 451.928C1515 451 1515 451 1517 451C1518.06 452.631 1519.04 454.308 1520 456C1527.45 467.912 1539.35 474.072 1552.81 477.375C1571.81 480.396 1591.91 477.161 1607.87 466.187C1612.51 462.634 1615.98 458.986 1619 454C1619.38 453.386 1619.75 452.772 1620.14 452.14C1626.32 440.985 1626.4 429.113 1626.19 416.75C1626.17 415.214 1626.16 413.679 1626.15 412.144C1626.11 408.429 1626.06 404.714 1626 401C1625.28 401.468 1624.57 401.936 1623.83 402.419C1596.74 419.943 1564.45 423.539 1533.15 417.222C1504.44 410.181 1479.57 392.196 1464 367C1440.72 327.613 1436.15 280.553 1447.19 236.375C1452.97 214.934 1463.08 196.353 1478 180C1478.64 179.274 1479.29 178.548 1479.95 177.8C1496.27 160.346 1519.55 149.5 1543 146C1544.05 145.833 1544.05 145.833 1545.12 145.664C1576.57 141.624 1608.69 148.056 1633 169ZM1525 216C1506.19 237.708 1502.54 266.309 1504 294C1505.96 318.101 1513.76 340.183 1532.54 356.164C1538.26 360.434 1544.17 363.029 1551 365C1551.77 365.225 1552.53 365.451 1553.32 365.683C1569.92 369.763 1588.8 367.187 1603.71 359.129C1619.24 349.08 1626.76 333.357 1631 316C1631.16 315.352 1631.33 314.704 1631.5 314.036C1636.38 293.764 1636.13 269.187 1631 249C1630.83 248.314 1630.66 247.629 1630.48 246.922C1626.1 230.052 1618.43 215.316 1603.57 205.5C1599.53 203.139 1595.46 201.409 1591 200C1590.29 199.774 1589.58 199.548 1588.85 199.316C1566.07 193.521 1541.75 199.638 1525 216Z" fill="#12122D"/>
<path d="M2259 66C2278.47 66 2297.94 66 2318 66C2318 113.85 2318 161.7 2318 211C2371.46 211 2424.92 211 2480 211C2480 163.15 2480 115.3 2480 66C2499.47 66 2518.94 66 2539 66C2539 180.18 2539 294.36 2539 412C2519.53 412 2500.06 412 2480 412C2480 364.15 2480 316.3 2480 267C2426.54 267 2373.08 267 2318 267C2318 314.85 2318 362.7 2318 412C2298.53 412 2279.06 412 2259 412C2259 297.82 2259 183.64 2259 66Z" fill="#12122D"/>
<path d="M438.375 -0.25C442 0 442 0 443.529 1.09302C445.585 3.75807 446.84 6.69092 448.16 9.76172C448.613 10.7905 448.613 10.7905 449.075 11.8401C449.731 13.3335 450.385 14.8284 451.035 16.3245C452.44 19.5557 453.86 22.7801 455.279 26.0051C456.03 27.7111 456.78 29.4175 457.529 31.1242C461.331 39.7778 465.21 48.3961 469.098 57.011C474.927 69.9252 480.729 82.8506 486.472 95.8035C490.626 105.17 494.812 114.523 499 123.875C504.914 137.08 510.802 150.297 516.671 163.522C523.861 179.72 531.089 195.899 538.374 212.055C543.949 224.419 549.479 236.803 554.977 249.202C560.36 261.341 565.794 273.456 571.25 285.562C577.613 299.685 583.941 313.821 590.218 327.982C592.823 333.858 595.435 339.731 598.046 345.605C600.237 350.532 602.426 355.46 604.612 360.39C608.359 368.837 612.113 377.279 615.953 385.684C616.526 386.945 617.099 388.207 617.672 389.469C618.689 391.703 619.714 393.934 620.75 396.16C621.188 397.127 621.627 398.094 622.078 399.09C622.454 399.903 622.829 400.716 623.216 401.554C624.166 404.517 624.269 406.907 624 410C621.382 412.618 620.267 412.253 616.617 412.261C615.474 412.268 614.331 412.275 613.154 412.282C611.894 412.28 610.634 412.277 609.336 412.275C608.001 412.279 606.666 412.284 605.33 412.29C601.698 412.304 598.066 412.304 594.434 412.302C591.404 412.301 588.375 412.305 585.345 412.31C578.2 412.321 571.054 412.322 563.908 412.316C556.531 412.31 549.153 412.322 541.776 412.343C535.447 412.361 529.118 412.367 522.789 412.364C519.007 412.362 515.225 412.364 511.443 412.378C507.886 412.391 504.33 412.389 500.773 412.376C498.843 412.372 496.912 412.384 494.982 412.395C493.836 412.388 492.691 412.381 491.51 412.374C490.014 412.374 490.014 412.374 488.488 412.375C485.554 411.933 484.752 411.347 483 409C481.648 406.336 480.394 403.688 479.184 400.961C478.815 400.145 478.447 399.329 478.068 398.489C476.851 395.787 475.644 393.081 474.438 390.375C473.583 388.472 472.728 386.569 471.873 384.666C465.8 371.131 459.829 357.552 453.889 343.958C448.194 330.925 442.385 317.948 436.5 305C430.213 291.167 424.022 277.298 417.938 263.375C411.912 249.589 405.813 235.839 399.625 222.125C399.246 221.286 398.868 220.446 398.478 219.581C397.002 216.31 395.525 213.039 394.049 209.768C390.386 201.646 386.738 193.518 383.157 185.36C380.758 179.902 378.294 174.49 375.719 169.113C374.925 167.417 374.925 167.417 374.115 165.687C373.112 163.548 372.087 161.419 371.035 159.303C367.371 151.383 367.371 151.383 368.895 146.52C369.562 144.997 370.266 143.491 371 142C371.775 140.184 372.548 138.368 373.32 136.551C374.251 134.469 375.186 132.39 376.125 130.312C376.924 128.53 377.723 126.747 378.522 124.965C379.393 123.022 380.266 121.08 381.14 119.138C383.091 114.801 385.032 110.459 386.973 106.117C389.838 99.7061 392.705 93.2959 395.574 86.8867C399.181 78.8307 402.786 70.774 406.39 62.7168C407.789 59.589 409.189 56.4614 410.589 53.334C413.931 45.867 417.269 38.3985 420.598 30.9255C422.182 27.3695 423.768 23.8142 425.354 20.259C426.114 18.553 426.874 16.8466 427.633 15.1399C428.68 12.7837 429.73 10.4289 430.781 8.07422C431.094 7.36892 431.407 6.66361 431.729 5.93694C434.363 0.0471649 434.363 0.047165 438.375 -0.25Z" fill="#12122D"/>
<path d="M1366.65 168.752C1386.44 186.393 1393.14 209.554 1394.81 235.159C1395.48 248.841 1395.25 262.571 1395.2 276.266C1395.19 281.053 1395.19 285.84 1395.19 290.627C1395.18 299.654 1395.16 308.681 1395.14 317.707C1395.12 328 1395.11 338.293 1395.1 348.586C1395.08 369.724 1395.04 390.862 1395 412C1377.84 412 1360.68 412 1343 412C1342.67 401.77 1342.34 391.54 1342 381C1340.47 382.753 1338.95 384.506 1337.38 386.312C1317.81 407.923 1292.14 417.958 1263.34 419.84C1235.04 421.198 1209.39 416.289 1187.7 396.945C1172.94 382.982 1166 363.788 1164.88 343.785C1164.3 322.07 1170.51 301.359 1185.54 285.297C1215.8 254.544 1268.25 251.641 1308.5 245.562C1310.28 245.293 1310.28 245.293 1312.1 245.018C1315.5 244.508 1318.89 244.005 1322.28 243.504C1323.31 243.351 1324.33 243.198 1325.39 243.041C1326.33 242.903 1327.28 242.765 1328.25 242.623C1329.08 242.502 1329.9 242.381 1330.75 242.256C1333 242 1333 242 1337 242C1334.4 228.324 1331.87 217.43 1321 208C1306.84 198.636 1285.89 198.069 1269.69 201.187C1256.06 204.532 1243.28 210.273 1235 222C1232.59 226.195 1230.53 230.409 1229 235C1222.92 234.349 1217.36 232.715 1211.54 230.875C1210.56 230.568 1209.57 230.261 1208.56 229.945C1206.49 229.298 1204.42 228.649 1202.36 227.998C1199.18 226.998 1196.01 226.006 1192.83 225.015C1190.82 224.386 1188.81 223.755 1186.79 223.125C1185.84 222.827 1184.89 222.529 1183.91 222.222C1183.03 221.945 1182.15 221.668 1181.25 221.383C1180.09 221.017 1180.09 221.017 1178.9 220.645C1177 220 1177 220 1175 219C1176.15 212.827 1177.85 207.347 1180.56 201.687C1180.91 200.954 1181.26 200.22 1181.62 199.465C1184.99 192.64 1189.1 186.838 1194 181C1194.99 179.785 1194.99 179.785 1196 178.547C1213.86 157.407 1240.55 148.099 1267.38 145.406C1300.6 142.67 1340.19 146.292 1366.65 168.752ZM1330.51 290.731C1329.55 290.892 1328.59 291.052 1327.6 291.218C1323.09 291.979 1318.59 292.746 1314.08 293.515C1311.74 293.914 1309.39 294.31 1307.05 294.702C1262.83 300.298 1262.83 300.298 1227 324C1222.34 331.796 1221.59 340.232 1223.73 348.996C1227.09 359.089 1232.64 364.28 1242 369C1257.86 375.751 1277.17 373.999 1293.06 368.25C1310.16 360.975 1323.36 348.29 1330.75 331.246C1334.78 320.771 1336.17 310.731 1336.06 299.562C1336.06 298.64 1336.05 297.718 1336.05 296.767C1336.04 294.511 1336.02 292.256 1336 290C1334.15 290 1332.33 290.426 1330.51 290.731Z" fill="#12122D"/>
<path d="M2802.67 172.219C2805.17 174.424 2807.59 176.692 2810 179C2810.82 179.758 2811.64 180.516 2812.49 181.297C2837.75 205.337 2849.21 241.122 2850.22 275.301C2850.98 316.33 2840.84 353.842 2812 384C2811.39 384.673 2810.78 385.346 2810.15 386.039C2788.09 409.556 2755.02 418.922 2723.75 420.125C2687.21 420.802 2654.62 409.046 2628 384C2610.02 366.49 2599.54 343.166 2594 319C2593.82 318.227 2593.64 317.454 2593.46 316.658C2588.64 294.409 2588.9 268.159 2594 246C2594.19 245.156 2594.39 244.312 2594.59 243.443C2602.43 210.598 2621.23 181.665 2649.95 163.422C2695.59 135.515 2761.1 137.697 2802.67 172.219ZM2671 220C2653.01 243.2 2650.18 274.18 2653.69 302.562C2657.13 321.88 2664.22 340.969 2680.25 353.312C2697.05 364.831 2717.25 366.854 2736.95 363.418C2752.42 360.254 2764.96 351.866 2773.63 338.75C2789.9 311.984 2791.44 279.52 2784.38 249.562C2779.62 232.894 2770.42 216.94 2755 208C2728.83 194.303 2691.11 196.667 2671 220Z" fill="#12122D"/>
<path d="M2897 152C2916.8 152 2936.6 152 2957 152C2957.01 156.252 2957.03 160.504 2957.04 164.885C2957.09 179.003 2957.16 193.12 2957.24 207.238C2957.28 215.789 2957.32 224.341 2957.35 232.892C2957.37 240.356 2957.4 247.82 2957.45 255.283C2957.47 259.226 2957.49 263.169 2957.5 267.111C2957.33 312.241 2957.33 312.241 2978.59 350.777C2989.35 360.717 3003.64 364.124 3018 364C3033.72 363.086 3047.88 358.415 3059.03 346.906C3073.99 328.832 3076.28 305.343 3076.32 282.781C3076.33 281.34 3076.34 279.9 3076.35 278.459C3076.38 274.605 3076.39 270.75 3076.4 266.896C3076.42 262.847 3076.45 258.798 3076.47 254.749C3076.52 247.106 3076.56 239.464 3076.59 231.822C3076.63 223.111 3076.68 214.399 3076.73 205.688C3076.83 187.792 3076.92 169.896 3077 152C3096.47 152 3115.94 152 3136 152C3136 237.8 3136 323.6 3136 412C3118.84 412 3101.68 412 3084 412C3083.67 403.42 3083.34 394.84 3083 386C3081.45 387.629 3079.91 389.259 3078.31 390.938C3063.96 405.47 3045.91 414.183 3026 418C3024.84 418.224 3023.67 418.449 3022.47 418.68C2993.89 423.291 2963 420.083 2939 403C2935.43 400.203 2932.18 397.227 2929 394C2928.24 393.254 2927.49 392.507 2926.71 391.738C2913.32 377.802 2906.39 360.356 2901.75 341.875C2901.5 340.917 2901.26 339.96 2901 338.973C2895.99 317.831 2896.72 295.945 2896.8 274.37C2896.81 270.054 2896.81 265.738 2896.81 261.422C2896.82 253.284 2896.84 245.146 2896.86 237.008C2896.88 227.728 2896.89 218.449 2896.9 209.169C2896.92 190.113 2896.96 171.056 2897 152Z" fill="#12122E"/>
<path d="M2049 153C2050.18 153.43 2051.35 153.861 2052.57 154.304C2066.12 159.665 2077.58 167.892 2088 178C2088.68 178.609 2089.37 179.219 2090.07 179.847C2101.6 190.494 2109.44 205.979 2113.67 220.886C2113.9 221.669 2114.12 222.452 2114.36 223.259C2114.91 225.171 2115.45 227.085 2116 229C2108.92 230.986 2101.83 232.96 2094.75 234.919C2091.45 235.829 2088.16 236.743 2084.88 237.666C2081.09 238.728 2077.31 239.773 2073.52 240.816C2071.75 241.316 2071.75 241.316 2069.95 241.826C2068.85 242.126 2067.75 242.427 2066.62 242.736C2065.65 243.005 2064.68 243.274 2063.69 243.55C2060.76 244.04 2058.82 243.916 2056 243C2054.7 240.664 2054.7 240.664 2053.69 237.625C2051.12 230.848 2047.58 225.586 2043 220C2042.22 219.029 2042.22 219.029 2041.42 218.039C2031.78 207.275 2016.77 201.815 2002.69 200.839C1985.01 200.234 1969.31 205.363 1956 217C1939.33 233.585 1935.17 259.371 1934.75 281.937C1935.17 304.661 1939.51 328.436 1955 346C1955.45 346.576 1955.9 347.152 1956.36 347.746C1963.4 355.905 1976.34 361.93 1987 363C1988.64 363.195 1988.64 363.195 1990.31 363.394C2006.56 364.934 2022.6 363.134 2036 353C2036.78 352.423 2037.57 351.847 2038.38 351.253C2046.54 344.24 2051.43 333.944 2055 324C2062.41 324.545 2069.47 325.835 2076.7 327.503C2077.77 327.746 2078.84 327.989 2079.95 328.239C2083.34 329.008 2086.73 329.785 2090.12 330.562C2092.44 331.088 2094.76 331.613 2097.07 332.138C2102.71 333.419 2108.36 334.707 2114 336C2114.81 339.636 2115.12 341.649 2113.66 345.117C2113.35 345.881 2113.03 346.645 2112.7 347.433C2112.35 348.239 2111.99 349.044 2111.62 349.875C2111.26 350.714 2110.89 351.554 2110.52 352.42C2104.55 365.816 2097.29 376.589 2087 387C2086.36 387.715 2085.71 388.43 2085.05 389.168C2065.66 410.241 2034.72 418.815 2007 420C1973.85 421.317 1941.67 413.574 1916.5 391.25C1914.99 389.842 1913.49 388.427 1912 387C1911.13 386.175 1910.27 385.35 1909.37 384.5C1908.59 383.675 1907.81 382.85 1907 382C1906.13 381.104 1906.13 381.104 1905.24 380.191C1880.24 353.468 1870.99 314.081 1871.82 278.328C1873.29 238.37 1886.71 201.583 1916.25 173.875C1952.08 143.211 2005.31 136.679 2049 153Z" fill="#12122D"/>
<path d="M3332.56 150.875C3333.37 150.871 3334.19 150.867 3335.02 150.863C3335.82 150.865 3336.62 150.866 3337.44 150.867C3338.15 150.868 3338.86 150.869 3339.59 150.871C3342.74 151.04 3345.87 151.553 3349 152C3349 170.15 3349 188.3 3349 207C3346.03 206.67 3343.06 206.34 3340 206C3319.82 204.815 3300.86 207.504 3284.97 220.931C3269.35 235.045 3263.5 254.543 3262 275C3261.84 279.57 3261.82 284.139 3261.79 288.711C3261.79 290.063 3261.78 291.414 3261.76 292.765C3261.74 296.403 3261.72 300.04 3261.7 303.678C3261.67 307.491 3261.65 311.304 3261.62 315.117C3261.57 322.324 3261.53 329.531 3261.48 336.738C3261.43 344.948 3261.38 353.159 3261.32 361.369C3261.21 378.246 3261.1 395.123 3261 412C3241.53 412 3222.06 412 3202 412C3201.98 379.022 3201.96 346.044 3201.95 313.066C3201.95 309.177 3201.95 305.287 3201.95 301.398C3201.94 300.624 3201.94 299.85 3201.94 299.052C3201.94 286.498 3201.93 273.944 3201.92 261.39C3201.91 248.518 3201.91 235.646 3201.91 222.774C3201.9 214.824 3201.9 206.875 3201.89 198.926C3201.89 192.841 3201.89 186.756 3201.89 180.671C3201.89 178.167 3201.88 175.663 3201.88 173.159C3201.88 169.757 3201.88 166.355 3201.88 162.953C3201.88 161.948 3201.87 160.943 3201.87 159.908C3201.87 159.004 3201.88 158.1 3201.88 157.168C3201.88 156.382 3201.88 155.595 3201.88 154.785C3202 153 3202 153 3203 152C3204.6 151.907 3206.2 151.883 3207.8 151.886C3208.82 151.887 3209.84 151.887 3210.89 151.887C3212 151.892 3213.11 151.897 3214.25 151.902C3215.95 151.904 3215.95 151.904 3217.68 151.907C3221.31 151.912 3224.94 151.925 3228.56 151.938C3231.02 151.943 3233.47 151.947 3235.92 151.951C3241.95 151.961 3247.97 151.981 3254 152C3254.33 164.87 3254.66 177.74 3255 191C3257.31 187.7 3259.62 184.4 3262 181C3274.57 163.831 3296.69 155.167 3317.01 151.652C3322.19 150.92 3327.34 150.85 3332.56 150.875Z" fill="#12122E"/>
<path d="M1757 152C1776.47 152 1795.94 152 1816 152C1816 237.8 1816 323.6 1816 412C1796.53 412 1777.06 412 1757 412C1757 326.2 1757 240.4 1757 152Z" fill="#12122D"/>
<path d="M1757 60C1776.47 60 1795.94 60 1816 60C1816 77.82 1816 95.64 1816 114C1796.53 114 1777.06 114 1757 114C1757 96.18 1757 78.36 1757 60Z" fill="#12122D"/>
</g>
<defs>
<clipPath id="clip0_3013_896">
<rect width="3392" height="584" fill="white"/>
</clipPath>
</defs>
</svg>
